<svg width="27" height="26" viewBox="0 0 27 26" fill="none" xmlns="http://www.w3.org/2000/svg">
<path fill-rule="evenodd" clip-rule="evenodd" d="M4.93575 0C2.69724 0 0.882568 1.81467 0.882568 4.05318V21.6606C0.882568 23.8991 2.69724 25.7138 4.93575 25.7138H22.5431C24.7817 25.7138 26.5963 23.8991 26.5963 21.6606V4.05318C26.5963 1.81467 24.7817 0 22.5431 0H4.93575ZM15.8821 9.19981H20.882V7.71413H15.8821V9.19981ZM18.4713 18.8568C20.6656 18.8568 21.7991 17.5917 22.1148 16.6282H19.852C19.0628 17.5813 16.6678 17.5063 16.575 15.121H22.3084C22.3184 14.4138 22.2962 13.9072 22.2405 13.5313C21.947 11.5672 20.6027 10.2435 18.4014 10.2435C16.1578 10.2435 14.4972 11.7366 14.4972 14.6411C14.4972 17.5724 16.2757 18.8568 18.4713 18.8568ZM20.1713 13.6569H16.625C16.7757 12.579 17.355 12.0085 18.4021 12.0085C19.3599 12.0085 20.0963 12.5077 20.1713 13.6569ZM5.16819 18.8478H9.78662C14.6322 18.8478 14.5493 13.7958 12.0773 12.8598C14.1201 11.7738 14.0458 7.7899 10.1345 7.72973H5.16819V18.8478ZM9.8709 12.1712H7.31098V9.94265H9.64805C11.9466 9.94265 11.6623 12.1712 9.8709 12.1712ZM7.31098 14.3997H9.73305C11.7458 14.3997 11.8794 16.6401 9.69734 16.6401H7.31098V14.3997Z" fill="#1B1B1F"/>
</svg>
