<svg width="27" height="27" viewBox="0 0 27 27" fill="none" xmlns="http://www.w3.org/2000/svg">
<path d="M0 13.2952C0 10.8843 0.600395 8.6596 1.80113 6.621C3.00189 4.5824 4.63278 2.96927 6.69376 1.78155C8.75476 0.593843 11.0039 0 13.4413 0C15.8786 0 18.1278 0.593843 20.1888 1.78155C22.2498 2.96927 23.8807 4.5824 25.0814 6.621C26.2822 8.6596 26.8826 10.8843 26.8826 13.2952C26.8826 15.706 26.2822 17.9308 25.0814 19.9694C23.8807 22.008 22.2498 23.6211 20.1888 24.8088C18.1278 25.9965 15.8786 26.5904 13.4413 26.5904C11.0039 26.5904 8.75476 25.9965 6.69376 24.8088C4.63278 23.6211 3.00189 22.008 1.80113 19.9694C0.600395 17.9308 0 15.706 0 13.2952ZM2.23125 13.2952C2.23125 16.0606 3.17214 18.498 5.05392 20.6075C5.91416 18.9412 7.27622 17.3546 9.14007 15.8479C11.0039 14.3411 12.823 13.3927 14.5972 13.0027C14.3284 12.3823 14.0686 11.8239 13.8176 11.3275C10.7351 12.3025 7.40168 12.79 3.81732 12.79C3.11838 12.79 2.59866 12.7811 2.25814 12.7634C2.25814 12.8343 2.25367 12.9229 2.24469 13.0293C2.23574 13.1356 2.23125 13.2243 2.23125 13.2952ZM2.58073 10.5564C2.97501 10.5918 3.55748 10.6096 4.32809 10.6096C7.32104 10.6096 10.1616 10.2107 12.8499 9.41299C11.4878 7.01985 9.99136 5.02558 8.36048 3.43016C6.94468 4.13924 5.73047 5.12308 4.71789 6.38169C3.70533 7.64029 2.99294 9.03187 2.58073 10.5564ZM6.58623 22.0434C8.6114 23.6034 10.8964 24.3834 13.4413 24.3834C14.7675 24.3834 16.0847 24.1352 17.393 23.6388C17.0346 20.6075 16.3356 17.6737 15.2962 14.8374C13.6474 15.1919 11.9852 16.0872 10.3095 17.523C8.63379 18.9589 7.3927 20.4657 6.58623 22.0434ZM10.6993 2.57926C12.2764 4.19242 13.737 6.20441 15.0811 8.61528C17.5185 7.60484 19.3554 6.31965 20.592 4.75967C18.5131 3.05789 16.1295 2.207 13.4413 2.207C12.5273 2.207 11.6133 2.3311 10.6993 2.57926ZM16.0489 10.5032C16.3177 11.0704 16.6224 11.7884 16.9629 12.657C18.2891 12.5329 19.7318 12.4709 21.291 12.4709C22.4022 12.4709 23.5043 12.4975 24.5975 12.5506C24.4542 10.1398 23.576 7.99484 21.9631 6.11578C20.7981 7.8353 18.8268 9.29777 16.0489 10.5032ZM17.635 14.5183C18.549 17.1419 19.1673 19.8364 19.4899 22.6018C20.9057 21.6977 22.0616 20.5366 22.9577 19.1185C23.8538 17.7003 24.3915 16.1669 24.5707 14.5183C23.2624 14.4297 22.0706 14.3854 20.9953 14.3854C20.0096 14.3854 18.8895 14.4297 17.635 14.5183Z" fill="#1B1B1F"/>
</svg>
