<svg width="20" height="27" viewBox="0 0 20 27" fill="none" xmlns="http://www.w3.org/2000/svg">
<path fill-rule="evenodd" clip-rule="evenodd" d="M14.3297 10.8454C13.5187 10.8454 12.7409 11.1497 12.1674 11.6913C11.5939 12.2329 11.2717 12.9675 11.2717 13.7335C11.2717 14.4994 11.5939 15.234 12.1674 15.7756C12.7409 16.3172 13.5187 16.6215 14.3297 16.6215C15.1407 16.6215 15.9185 16.3172 16.492 15.7756C17.0654 15.234 17.3876 14.4994 17.3876 13.7335C17.3876 12.9675 17.0654 12.2329 16.492 11.6913C15.9185 11.1497 15.1407 10.8454 14.3297 10.8454ZM10.6106 10.221C11.5969 9.28941 12.9347 8.76605 14.3297 8.76605C15.7246 8.76605 17.0624 9.28941 18.0488 10.221C19.0352 11.1526 19.5893 12.416 19.5893 13.7335C19.5893 15.0509 19.0352 16.3144 18.0488 17.246C17.0624 18.1776 15.7246 18.7009 14.3297 18.7009C12.9347 18.7009 11.5969 18.1776 10.6106 17.246C9.62418 16.3144 9.07004 15.0509 9.07004 13.7335C9.07004 12.416 9.62418 11.1526 10.6106 10.221Z" fill="#1B1B1F"/>
<path fill-rule="evenodd" clip-rule="evenodd" d="M5.70972 18.5038C4.92124 18.5038 4.16505 18.8171 3.60751 19.3746C3.04996 19.9322 2.73674 20.6883 2.73674 21.4768C2.73674 22.2653 3.04996 23.0215 3.60751 23.579C4.16505 24.1366 4.92124 24.4498 5.70972 24.4498C6.49821 24.4498 7.2544 24.1366 7.81194 23.579C8.36948 23.0215 8.6827 22.2653 8.6827 21.4768V18.5038H5.70972ZM0.596191 21.4768C0.596191 20.1206 1.13494 18.82 2.09391 17.861C3.05288 16.902 4.35353 16.3633 5.70972 16.3633H10.8233V21.4768C10.8233 22.833 10.2845 24.1337 9.32553 25.0926C8.36656 26.0516 7.06591 26.5904 5.70972 26.5904C4.35353 26.5904 3.05288 26.0516 2.09391 25.0926C1.3913 24.39 0.801028 23.504 0.596191 22.5471V21.4768Z" fill="#1B1B1F"/>
<path fill-rule="evenodd" clip-rule="evenodd" d="M8.48564 0H14.0375C15.5099 0 16.922 0.538745 17.9632 1.49772C19.0044 2.45669 19.5893 3.75734 19.5893 5.11353C19.5893 6.46972 19.0044 7.77037 17.9632 8.72934C16.922 9.68832 15.5099 10.2271 14.0375 10.2271H8.48564V0ZM10.8097 2.14055V8.08651H14.0375C14.8935 8.08651 15.7145 7.77329 16.3199 7.21575C16.9252 6.65821 17.2653 5.90201 17.2653 5.11353C17.2653 4.32505 16.9252 3.56886 16.3199 3.01131C15.7145 2.45377 14.8935 2.14055 14.0375 2.14055H10.8097Z" fill="#1B1B1F"/>
<path fill-rule="evenodd" clip-rule="evenodd" d="M2.09391 1.49772C3.05288 0.538745 4.35353 0 5.70972 0H10.8233V10.2271H5.70972C4.35353 10.2271 3.05288 9.68832 2.09391 8.72934C1.3913 8.02673 0.801028 7.14071 0.596191 6.1838V5.11353C0.596191 3.75734 1.13494 2.45669 2.09391 1.49772ZM2.73674 5.11353C2.73674 5.90201 3.04996 6.65821 3.60751 7.21575C4.16505 7.77329 4.92124 8.08651 5.70972 8.08651H8.6827V2.14055H5.70972C4.92124 2.14055 4.16505 2.45377 3.60751 3.01131C3.04996 3.56886 2.73674 4.32505 2.73674 5.11353Z" fill="#1B1B1F"/>
<path fill-rule="evenodd" clip-rule="evenodd" d="M2.09391 9.67937C3.05288 8.7204 4.35353 8.18165 5.70972 8.18165H10.8233V18.4087H5.70972C4.35353 18.4087 3.05288 17.87 2.09391 16.911C1.3913 16.2084 0.801028 15.3224 0.596191 14.3655V13.2952C0.596191 11.939 1.13494 10.6383 2.09391 9.67937ZM2.73674 13.2952C2.73674 14.0837 3.04996 14.8399 3.60751 15.3974C4.16505 15.9549 4.92124 16.2682 5.70972 16.2682H8.6827V10.3222H5.70972C4.92124 10.3222 4.16505 10.6354 3.60751 11.193C3.04996 11.7505 2.73674 12.5067 2.73674 13.2952Z" fill="#1B1B1F"/>
</svg>
