<svg width="28" height="26" viewBox="0 0 28 26" fill="none" xmlns="http://www.w3.org/2000/svg">
<path d="M14.0031 0C6.37123 0 0.182617 5.90184 0.182617 13.1823C0.182617 19.0067 4.14259 23.948 9.63391 25.6911C10.3246 25.8131 10.5782 25.4051 10.5782 25.0569C10.5782 24.7426 10.5653 23.7041 10.5595 22.6026C6.71451 23.4001 5.9032 21.0473 5.9032 21.0473C5.27453 19.5236 4.3687 19.1185 4.3687 19.1185C3.11483 18.3003 4.46321 18.317 4.46321 18.317C5.85105 18.4101 6.58183 19.6756 6.58183 19.6756C7.81446 21.6909 9.81493 21.1082 10.6036 20.7715C10.7276 19.9193 11.0858 19.3379 11.481 19.0087C8.41136 18.6753 5.18434 17.545 5.18434 12.4939C5.18434 11.0547 5.72424 9.87872 6.60839 8.95557C6.46488 8.6235 5.99186 7.28278 6.74225 5.46699C6.74225 5.46699 7.90279 5.11269 10.5439 6.81826C11.6462 6.52609 12.8285 6.37969 14.0031 6.37473C15.1776 6.37969 16.3608 6.52609 17.4653 6.81826C20.1032 5.11269 21.2621 5.46699 21.2621 5.46699C22.0144 7.28278 21.5411 8.6235 21.3976 8.95557C22.2837 9.87872 22.8199 11.0546 22.8199 12.4939C22.8199 17.5569 19.5868 18.6719 16.5094 18.9982C17.0051 19.4073 17.4468 20.2095 17.4468 21.4393C17.4468 23.2031 17.4307 24.6227 17.4307 25.0569C17.4307 25.4077 17.6795 25.8188 18.3801 25.6894C23.8684 23.9443 27.8234 19.0048 27.8234 13.1823C27.8234 5.90184 21.6357 0 14.0031 0Z" fill="#1B1B1F"/>
</svg>
