<svg width="44" height="44" viewBox="0 0 44 44" fill="none" xmlns="http://www.w3.org/2000/svg">
<path d="M31.592 26.4C31.768 24.948 31.9 23.496 31.9 22C31.9 20.504 31.768 19.052 31.592 17.6H39.028C39.38 19.008 39.6 20.482 39.6 22C39.6 23.518 39.38 24.992 39.028 26.4M27.698 38.632C29.018 36.19 30.03 33.55 30.734 30.8H37.224C35.112 34.43 31.746 37.246 27.698 38.632ZM27.148 26.4H16.852C16.632 24.948 16.5 23.496 16.5 22C16.5 20.504 16.632 19.03 16.852 17.6H27.148C27.346 19.03 27.5 20.504 27.5 22C27.5 23.496 27.346 24.948 27.148 26.4ZM22 39.512C20.174 36.872 18.7 33.946 17.798 30.8H26.202C25.3 33.946 23.826 36.872 22 39.512ZM13.2 13.2H6.776C8.866 9.548 12.254 6.732 16.28 5.368C14.96 7.81 13.97 10.45 13.2 13.2ZM6.776 30.8H13.2C13.97 33.55 14.96 36.19 16.28 38.632C12.254 37.246 8.866 34.43 6.776 30.8ZM4.972 26.4C4.62 24.992 4.4 23.518 4.4 22C4.4 20.482 4.62 19.008 4.972 17.6H12.408C12.232 19.052 12.1 20.504 12.1 22C12.1 23.496 12.232 24.948 12.408 26.4M22 4.466C23.826 7.106 25.3 10.054 26.202 13.2H17.798C18.7 10.054 20.174 7.106 22 4.466ZM37.224 13.2H30.734C30.03 10.45 29.018 7.81 27.698 5.368C31.746 6.754 35.112 9.548 37.224 13.2ZM22 0C9.834 0 0 9.9 0 22C0 27.8348 2.31785 33.4305 6.44365 37.5563C8.48654 39.5992 10.9118 41.2197 13.581 42.3254C16.2501 43.431 19.1109 44 22 44C27.8348 44 33.4305 41.6822 37.5563 37.5563C41.6822 33.4305 44 27.8348 44 22C44 19.1109 43.431 16.2501 42.3254 13.581C41.2197 10.9118 39.5992 8.48654 37.5563 6.44365C35.5135 4.40076 33.0882 2.78025 30.419 1.67465C27.7499 0.569047 24.8891 0 22 0Z" fill="black"/>
</svg>
