<svg width="27" height="26" viewBox="0 0 27 26" fill="none" xmlns="http://www.w3.org/2000/svg">
<path d="M23.339 0C24.0932 0 24.8165 0.301013 25.3498 0.83682C25.8831 1.37263 26.1827 2.09934 26.1827 2.85708V22.8567C26.1827 23.6144 25.8831 24.3411 25.3498 24.8769C24.8165 25.4127 24.0932 25.7138 23.339 25.7138H3.43306C2.67886 25.7138 1.95555 25.4127 1.42226 24.8769C0.888959 24.3411 0.589355 23.6144 0.589355 22.8567V2.85708C0.589355 2.09934 0.888959 1.37263 1.42226 0.83682C1.95555 0.301013 2.67886 0 3.43306 0H23.339ZM22.628 22.1424V14.5711C22.628 13.336 22.1397 12.1515 21.2704 11.2781C20.4011 10.4047 19.2221 9.91408 17.9928 9.91408C16.7842 9.91408 15.3766 10.6569 14.6941 11.7712V10.1855H10.7271V22.1424H14.6941V15.0997C14.6941 13.9997 15.5757 13.0997 16.6705 13.0997C17.1984 13.0997 17.7047 13.3104 18.078 13.6855C18.4514 14.0606 18.6611 14.5693 18.6611 15.0997V22.1424H22.628ZM6.10613 7.94269C6.73966 7.94269 7.34724 7.68984 7.79521 7.23976C8.24318 6.78969 8.49484 6.17925 8.49484 5.54274C8.49484 4.2142 7.42846 3.12851 6.10613 3.12851C5.46884 3.12851 4.85765 3.38286 4.40701 3.83562C3.95637 4.28838 3.70321 4.90245 3.70321 5.54274C3.70321 6.87129 4.78381 7.94269 6.10613 7.94269ZM8.08251 22.1424V10.1855H4.14398V22.1424H8.08251Z" fill="#1B1B1F"/>
</svg>
