<svg width="16" height="13" viewBox="0 0 16 13" fill="none" xmlns="http://www.w3.org/2000/svg">
<path fill-rule="evenodd" clip-rule="evenodd" d="M9.69179 1.96798C8.25889 2.55235 5.39486 3.76183 1.09991 5.5964C0.402478 5.86832 0.0371371 6.13434 0.00387741 6.39446C-0.0523411 6.83406 0.509145 7.00715 1.27374 7.24284C1.37774 7.27498 1.48551 7.3082 1.59598 7.34335C2.34822 7.58313 3.36011 7.86359 3.88616 7.87466C4.36332 7.88477 4.89591 7.69194 5.48389 7.29604C9.49682 4.6403 11.5683 3.29794 11.6983 3.269C11.7901 3.24858 11.9172 3.22291 12.0034 3.29798C12.0895 3.37304 12.0811 3.51519 12.0719 3.55335C12.0163 3.78579 9.81223 5.79478 8.67166 6.83442C8.3161 7.15846 8.06392 7.38836 8.01236 7.44085C7.89683 7.55857 7.77908 7.66979 7.66601 7.77668C6.96718 8.43716 6.44309 8.93248 7.69498 9.74137C8.2967 10.1301 8.7781 10.4514 9.2584 10.7721C9.78289 11.1224 10.306 11.4717 10.9829 11.9067C11.1554 12.0176 11.32 12.1327 11.4805 12.2447C12.0909 12.6714 12.6394 13.0547 13.3168 12.9936C13.7106 12.958 14.1172 12.5951 14.3237 11.5128C14.8117 8.95463 15.7711 3.41192 15.9928 1.12786C16.0124 0.927739 15.9879 0.671638 15.9683 0.559223C15.9486 0.446797 15.9076 0.286619 15.7586 0.168042C15.582 0.0276175 15.3096 -0.00199337 15.1877 0.000101082C14.6335 0.0096826 13.7834 0.299511 9.69179 1.96798Z" fill="#3795FF"/>
</svg>
