<svg width="16" height="17" viewBox="0 0 16 17" fill="none" xmlns="http://www.w3.org/2000/svg">
<path d="M8.03216 0.5C3.64221 0.5 0.0643217 4.06 0.0643217 8.428C0.0643217 9.828 0.434171 11.188 1.12563 12.388L0 16.5L4.22111 15.396C5.38693 16.028 6.69749 16.364 8.03216 16.364C12.4221 16.364 16 12.804 16 8.436C16 6.316 15.1719 4.324 13.6683 2.828C12.1648 1.324 10.1628 0.5 8.03216 0.5ZM8.0402 1.836C9.80904 1.836 11.4653 2.524 12.7196 3.772C13.9658 5.02 14.6573 6.676 14.6573 8.436C14.6573 12.068 11.6824 15.02 8.03216 15.02C6.84221 15.02 5.67638 14.708 4.66332 14.1L4.42211 13.964L1.91357 14.62L2.5809 12.188L2.4201 11.932C1.7608 10.9 1.40704 9.676 1.40704 8.428C1.41508 4.796 4.38191 1.836 8.0402 1.836ZM5.21005 4.764C5.08141 4.764 4.86432 4.812 4.6794 5.012C4.50251 5.212 3.9799 5.7 3.9799 6.668C3.9799 7.644 4.69548 8.58 4.78392 8.716C4.89648 8.852 6.19899 10.852 8.201 11.7C8.67538 11.916 9.04523 12.036 9.33467 12.124C9.80904 12.276 10.2432 12.252 10.5889 12.204C10.9749 12.148 11.7628 11.724 11.9317 11.26C12.1005 10.796 12.1005 10.404 12.0523 10.316C11.996 10.236 11.8673 10.188 11.6663 10.1C11.4653 9.988 10.4844 9.508 10.3075 9.444C10.1226 9.38 10.01 9.348 9.85729 9.54C9.72864 9.74 9.34271 10.188 9.23015 10.316C9.10955 10.452 8.99698 10.468 8.80402 10.372C8.59497 10.268 7.95176 10.06 7.19598 9.388C6.601 8.86 6.20703 8.212 6.08643 8.012C5.98995 7.82 6.07839 7.7 6.17487 7.612C6.26332 7.524 6.39196 7.38 6.47236 7.26C6.57688 7.148 6.60904 7.06 6.67337 6.932C6.73769 6.796 6.70553 6.684 6.65729 6.588C6.60904 6.5 6.20704 5.508 6.03819 5.116C5.87739 4.732 5.71658 4.78 5.58794 4.772C5.47538 4.772 5.34673 4.764 5.21005 4.764Z" fill="#4DA355"/>
</svg>
